<?xml version="1.0" standalone="no"?>
<!DOCTYPE svg PUBLIC "-//W3C//DTD SVG 20010904//EN"
 "http://www.w3.org/TR/2001/REC-SVG-20010904/DTD/svg10.dtd">
<svg version="1.0" xmlns="http://www.w3.org/2000/svg"
 width="3360.000000pt" height="2112.000000pt" viewBox="0 0 3360.000000 2112.000000"
 preserveAspectRatio="xMidYMid meet">
<metadata>
Created by potrace 1.16, written by Peter Selinger 2001-2019
</metadata>
<g transform="translate(0.000000,2112.000000) scale(0.100000,-0.100000)"
fill="#000000" stroke="none">
<path d="M1052 20815 c-70 -31 -62 -103 15 -130 68 -24 78 -30 82 -50 8 -42
-64 -60 -99 -25 -23 23 -50 26 -50 7 0 -31 45 -57 98 -57 63 0 92 23 92 74 0
40 -11 51 -81 75 -56 19 -71 39 -49 66 18 22 68 19 82 -5 13 -21 48 -28 48 -9
0 23 -21 47 -51 58 -40 14 -46 13 -87 -4z"/>
<path d="M1263 20746 c-46 -34 -52 -118 -10 -163 29 -32 98 -32 129 -1 21 21
21 23 4 26 -10 2 -23 -1 -29 -7 -19 -19 -65 -13 -81 11 -8 12 -13 25 -10 30 3
4 34 8 70 8 64 0 64 0 64 29 0 16 -8 39 -18 51 -23 28 -89 37 -119 16z"/>
<path d="M1477 20749 c-23 -13 -47 -62 -47 -94 0 -33 24 -81 45 -89 34 -13 92
-6 108 12 10 10 17 24 17 30 0 17 -37 15 -44 -3 -8 -23 -53 -18 -70 7 -44 63
11 142 67 97 29 -22 47 -25 47 -6 -1 43 -77 72 -123 46z"/>
<path d="M1879 20731 c-24 -24 -29 -38 -29 -76 0 -61 32 -95 88 -95 58 0 83
25 90 88 4 47 2 54 -26 82 -41 40 -83 41 -123 1z"/>
<path d="M2070 20660 c0 -93 1 -100 20 -100 18 0 20 7 20 68 0 37 4 72 8 78
11 17 35 22 55 12 14 -7 17 -22 17 -83 0 -69 2 -75 20 -75 20 0 21 5 18 87 -3
83 -4 88 -30 102 -22 13 -33 13 -58 4 -17 -6 -32 -7 -36 -2 -3 5 -12 9 -20 9
-11 0 -14 -20 -14 -100z"/>
<path d="M19420 16240 l0 -290 45 0 44 0 3 103 3 102 100 5 c121 6 159 24 193
90 48 95 17 212 -68 257 -39 21 -56 23 -182 23 l-138 0 0 -290z m258 209 c41
-14 62 -49 62 -104 0 -88 -37 -115 -155 -115 l-75 0 0 115 0 115 69 0 c37 0
82 -5 99 -11z"/>
<path d="M22200 16240 l0 -290 45 0 45 0 0 130 0 130 120 0 120 0 0 35 0 35
-120 0 -120 0 0 90 0 90 135 0 135 0 0 35 0 35 -180 0 -180 0 0 -290z"/>
<path d="M22650 16240 l0 -290 40 0 40 0 0 290 0 290 -40 0 -40 0 0 -290z"/>
<path d="M21750 16440 c0 -49 -1 -50 -30 -50 -28 0 -30 -3 -30 -35 0 -32 2
-35 30 -35 l30 0 0 -151 0 -151 34 -34 c31 -31 39 -34 91 -34 55 0 57 1 51 23
-3 12 -6 28 -6 35 0 7 -13 12 -29 12 -51 0 -61 27 -61 172 l0 128 45 0 c45 0
45 0 45 35 0 35 0 35 -45 35 l-45 0 0 50 0 50 -40 0 -40 0 0 -50z"/>
<path d="M19910 16170 l0 -220 45 0 45 0 0 153 c0 121 3 157 15 174 17 25 83
47 109 37 13 -5 16 1 16 35 l0 41 -41 0 c-35 0 -47 -6 -75 -36 l-34 -35 0 35
c0 35 -1 36 -40 36 l-40 0 0 -220z"/>
<path d="M20285 16376 c-74 -34 -115 -110 -115 -214 0 -86 28 -145 88 -187 37
-26 53 -30 105 -30 88 0 141 32 180 105 26 50 29 62 25 131 -5 87 -23 126 -81
173 -33 26 -48 31 -105 33 -42 2 -78 -2 -97 -11z m155 -84 c78 -78 55 -245
-38 -272 -103 -32 -178 80 -142 212 24 84 123 117 180 60z"/>
<path d="M20650 16141 c0 -267 -3 -281 -51 -281 -15 0 -19 -7 -19 -35 0 -32 2
-35 30 -35 38 0 84 23 104 52 14 19 16 63 16 285 l0 263 -40 0 -40 0 0 -249z"/>
<path d="M20917 16369 c-80 -42 -123 -161 -97 -271 37 -154 231 -209 342 -98
21 21 38 42 38 48 0 6 -16 14 -36 18 -30 5 -40 2 -63 -20 -34 -32 -79 -42
-126 -26 -39 13 -75 59 -75 97 0 22 2 23 153 25 l152 3 -1 35 c-2 97 -42 168
-111 196 -47 20 -131 17 -176 -7z m174 -80 c16 -17 29 -42 29 -55 0 -24 -1
-24 -110 -24 -105 0 -110 1 -110 21 0 12 15 36 34 55 29 29 41 34 81 34 40 0
51 -5 76 -31z"/>
<path d="M21373 16369 c-128 -63 -148 -286 -33 -382 30 -26 87 -47 125 -47 75
0 175 71 175 124 0 24 -4 26 -40 26 -27 0 -40 -4 -40 -13 0 -27 -48 -60 -88
-61 -74 -2 -122 56 -122 148 0 96 48 156 124 156 36 0 86 -35 86 -60 0 -5 18
-10 40 -10 47 0 52 16 20 67 -42 69 -161 95 -247 52z"/>
<path d="M22925 16376 c-40 -17 -90 -75 -105 -121 -17 -53 -9 -162 16 -210 11
-22 39 -53 62 -69 34 -24 51 -29 104 -30 78 -1 131 24 172 82 24 34 30 54 34
115 3 45 0 89 -8 111 -16 48 -66 105 -107 122 -41 18 -129 17 -168 0z m154
-82 c77 -65 61 -234 -27 -271 -103 -43 -189 72 -152 203 25 89 114 123 179 68z"/>
<path d="M23250 16378 c0 -6 27 -103 60 -215 33 -112 60 -205 60 -208 0 -3 20
-5 45 -5 43 0 44 1 54 38 46 167 77 272 81 272 3 0 25 -70 49 -155 l43 -155
43 0 c33 0 45 4 49 18 56 186 116 398 116 408 0 10 -13 14 -40 14 -45 0 -33
25 -95 -205 l-32 -120 -16 55 c-9 30 -29 102 -44 160 l-29 105 -43 0 -44 0
-39 -145 c-21 -80 -41 -152 -45 -160 -3 -8 -20 39 -38 105 -62 230 -50 205
-95 205 -24 0 -40 -5 -40 -12z"/>
<path d="M6696 13909 c-233 -32 -454 -126 -635 -270 -423 -334 -597 -883 -446
-1404 112 -384 423 -715 802 -854 54 -20 65 -21 90 -9 l28 13 3 140 3 140
-123 0 c-104 0 -130 3 -169 21 -74 35 -117 80 -161 172 -34 68 -54 95 -110
145 -37 34 -68 67 -68 74 0 17 42 27 83 19 51 -10 124 -61 160 -113 53 -77 88
-113 131 -135 56 -28 148 -33 210 -11 44 16 50 22 61 60 7 23 25 63 39 88 31
51 34 48 -69 66 -199 34 -347 134 -421 284 -45 91 -65 193 -66 330 0 134 21
210 85 306 38 55 43 68 34 89 -17 42 -13 199 6 263 17 55 19 57 51 57 55 0
155 -36 245 -88 l85 -48 55 12 c31 7 104 18 164 23 114 11 273 1 378 -23 l55
-12 85 48 c90 52 190 88 245 88 32 0 34 -2 51 -57 19 -64 23 -221 6 -263 -9
-21 -4 -34 34 -89 64 -97 85 -172 85 -306 -2 -363 -168 -564 -508 -618 -73
-11 -88 -23 -60 -46 8 -6 24 -35 37 -64 21 -48 23 -69 29 -302 l5 -250 27 -13
c23 -11 36 -10 89 8 228 77 480 273 628 489 235 344 293 770 159 1166 -69 203
-169 359 -331 517 -178 173 -402 291 -652 343 -95 20 -332 28 -429 14z"/>
<path d="M24510 12255 l0 -115 70 0 c56 0 70 3 70 15 0 12 -13 15 -55 15 l-55
0 0 35 0 35 50 0 c38 0 50 4 50 15 0 11 -12 15 -50 15 l-50 0 0 35 0 35 55 0
c42 0 55 3 55 15 0 12 -14 15 -70 15 l-70 0 0 -115z"/>
<path d="M24739 12355 c-35 -19 -53 -65 -46 -121 7 -63 40 -96 97 -98 36 -1
46 4 73 34 28 31 29 35 13 38 -11 2 -23 -3 -28 -13 -15 -25 -54 -36 -82 -23
-48 21 -59 106 -19 150 23 26 69 23 97 -7 28 -30 36 -31 36 -6 0 48 -86 76
-141 46z"/>
<path d="M25766 12291 c-22 -24 -1 -34 30 -14 12 7 28 11 37 7 20 -7 30 -34
14 -38 -6 -2 -31 -9 -53 -15 -44 -12 -57 -32 -43 -68 9 -24 52 -38 78 -24 10
6 27 7 39 4 21 -5 22 -2 22 59 0 82 -17 108 -69 108 -25 0 -44 -7 -55 -19z"/>
<path d="M26315 12285 c-67 -66 9 -183 91 -143 36 17 46 44 13 34 -55 -17 -66
-17 -82 -1 -28 28 -19 35 42 35 33 0 62 4 65 9 9 14 -15 71 -34 81 -32 17 -70
11 -95 -15z"/>
<path d="M14410 11865 l0 -135 150 0 150 0 0 135 0 135 -150 0 -150 0 0 -135z"/>
<path d="M13650 11515 l0 -135 150 0 150 0 0 135 0 135 -150 0 -150 0 0 -135z"/>
<path d="M14029 11646 c-2 -2 -3 -63 -1 -135 l3 -131 150 0 149 0 0 135 0 135
-148 0 c-82 0 -151 -2 -153 -4z"/>
<path d="M14410 11515 l0 -135 150 0 150 0 0 135 0 135 -150 0 -150 0 0 -135z"/>
<path d="M15387 11525 c-15 -24 -35 -65 -44 -92 -9 -26 -21 -54 -27 -62 -14
-19 -14 -212 1 -242 6 -13 21 -45 32 -72 l20 -47 -43 -20 c-24 -10 -72 -24
-107 -29 -41 -7 -433 -11 -1107 -11 -696 0 -1050 -3 -1063 -10 -37 -20 -51
-66 -44 -144 14 -153 57 -385 75 -411 3 -5 15 -32 25 -60 15 -43 46 -104 89
-179 32 -55 137 -157 207 -200 30 -19 82 -44 115 -56 32 -12 67 -25 77 -31 37
-20 259 -50 412 -56 204 -7 524 24 583 57 9 5 51 19 92 31 41 11 84 26 95 33
11 7 45 23 75 35 30 13 79 39 108 57 29 19 56 34 61 34 5 0 15 7 22 16 8 9 30
27 50 40 48 30 211 192 245 244 15 22 31 40 35 40 5 0 9 5 9 11 0 7 16 33 35
60 48 67 143 253 183 360 9 24 17 27 84 33 113 10 223 56 289 120 66 65 76 77
95 121 20 49 19 52 -33 84 -62 39 -160 56 -274 48 l-87 -7 -6 43 c-9 56 -37
111 -95 185 -33 43 -129 122 -147 122 -5 -1 -22 -21 -37 -45z"/>
<path d="M13270 11165 l0 -135 150 0 150 0 0 135 0 135 -150 0 -150 0 0 -135z"/>
<path d="M13650 11165 l0 -135 150 0 150 0 0 135 0 135 -150 0 -150 0 0 -135z"/>
<path d="M14029 11296 c-2 -2 -3 -63 -1 -135 l3 -131 150 0 149 0 0 135 0 135
-148 0 c-82 0 -151 -2 -153 -4z"/>
<path d="M14410 11165 l0 -135 150 0 150 0 0 135 0 135 -150 0 -150 0 0 -135z"/>
<path d="M14790 11165 l0 -136 153 3 152 3 0 130 0 130 -152 3 -153 3 0 -136z"/>
<path d="M23730 9735 l0 -115 61 0 c54 0 64 3 90 29 23 24 29 38 29 75 0 89
-38 126 -130 126 l-50 0 0 -115z m120 67 c32 -26 38 -90 10 -124 -17 -22 -30
-28 -61 -28 l-39 0 0 85 0 85 34 0 c19 0 44 -8 56 -18z"/>
<path d="M27407 9839 c-27 -16 -47 -64 -47 -113 0 -51 33 -100 76 -110 40 -10
92 11 109 45 15 27 14 29 -4 29 -10 0 -21 -7 -25 -15 -16 -44 -96 -33 -116 16
-38 91 51 170 114 102 20 -21 28 -25 37 -16 9 9 4 19 -19 42 -24 24 -39 31
-69 31 -21 0 -46 -5 -56 -11z"/>
<path d="M27600 9735 l0 -115 61 0 c54 0 64 3 90 29 23 24 29 38 29 75 0 89
-38 126 -130 126 l-50 0 0 -115z m125 60 c27 -26 33 -72 14 -108 -16 -31 -28
-37 -71 -37 l-38 0 0 85 0 85 35 0 c25 0 44 -8 60 -25z"/>
<path d="M23982 9783 c-7 -3 -19 -18 -28 -35 -45 -87 51 -177 122 -114 27 24
28 25 7 26 -12 0 -25 -4 -28 -10 -9 -14 -48 -13 -63 2 -27 27 -13 38 48 38 56
0 60 1 60 24 0 38 -37 76 -73 75 -18 0 -38 -3 -45 -6z"/>
<path d="M24140 9670 c0 -100 3 -120 15 -120 11 0 15 12 15 47 0 44 1 45 18
30 26 -24 49 -21 77 8 33 32 35 105 5 135 -22 22 -69 27 -88 8 -9 -9 -12 -9
-12 0 0 7 -7 12 -15 12 -12 0 -15 -20 -15 -120z"/>
<path d="M24422 9767 c-28 -29 -30 -95 -4 -126 9 -11 31 -24 49 -27 45 -9 93
38 93 91 0 74 -89 114 -138 62z"/>
<path d="M24770 9705 c0 -68 3 -85 15 -85 11 0 15 16 17 68 l3 67 30 0 30 0 3
-67 c2 -50 7 -68 17 -68 10 0 15 18 17 68 l3 67 30 0 30 0 3 -67 c2 -52 6 -68
17 -68 12 0 15 16 15 73 0 80 -9 97 -50 97 -14 0 -31 -5 -38 -12 -9 -9 -15 -9
-24 0 -7 7 -24 12 -38 12 -14 0 -31 -5 -38 -12 -9 -9 -12 -9 -12 0 0 7 -7 12
-15 12 -12 0 -15 -16 -15 -85z"/>
<path d="M25061 9764 c-25 -32 -28 -90 -6 -121 20 -28 67 -38 101 -21 36 17
46 44 13 34 -55 -17 -66 -17 -82 -1 -28 28 -19 35 43 35 l60 0 0 30 c0 67 -88
96 -129 44z"/>
<path d="M25745 9765 c-36 -35 -34 -88 4 -126 33 -33 50 -35 90 -14 33 16 41
33 41 79 0 78 -82 115 -135 61z"/>
<path d="M26566 9771 c-22 -24 1 -36 29 -15 24 18 30 18 49 -2 20 -20 12 -34
-19 -34 -35 0 -74 -20 -80 -41 -14 -43 41 -83 82 -60 11 5 29 7 41 4 21 -5 22
-2 22 64 0 55 -4 73 -18 86 -25 23 -85 22 -106 -2z"/>
<path d="M27111 9764 c-23 -30 -28 -89 -8 -115 31 -41 99 -48 128 -13 18 22
-8 38 -28 18 -8 -8 -22 -14 -32 -14 -17 0 -51 29 -51 43 0 4 27 7 60 7 71 0
82 13 53 62 -16 28 -26 33 -60 36 -34 3 -44 -1 -62 -24z"/>
<path d="M6097 9626 c-65 -60 -40 -191 40 -211 39 -9 91 13 108 46 15 27 14
29 -4 29 -10 0 -21 -7 -25 -15 -8 -23 -47 -34 -78 -23 -49 17 -61 106 -21 151
24 25 69 22 95 -8 22 -26 48 -33 48 -14 0 6 -13 24 -29 40 -39 38 -96 40 -134
5z"/>
<path d="M6600 9608 c0 -33 -3 -39 -12 -30 -19 19 -66 14 -88 -8 -30 -30 -28
-103 5 -135 28 -29 51 -32 77 -8 11 9 18 11 18 5 0 -7 7 -12 15 -12 12 0 15
19 15 115 0 96 -3 115 -15 115 -11 0 -15 -11 -15 -42z"/>
<path d="M6950 9535 c0 -96 3 -115 15 -115 11 0 15 11 15 40 l0 40 45 0 c56 0
85 25 85 74 0 50 -37 76 -106 76 l-54 0 0 -115z"/>
<path d="M7500 9535 c0 -107 1 -115 20 -115 17 0 19 8 22 68 3 63 5 67 27 70
35 5 51 -22 51 -85 0 -40 4 -53 15 -53 24 0 21 131 -3 153 -20 19 -67 23 -77
7 -13 -22 -25 -8 -25 30 0 29 -4 40 -15 40 -12 0 -15 -19 -15 -115z"/>
<path d="M21395 9598 c-144 -26 -254 -71 -443 -178 -145 -82 -201 -132 -243
-217 -19 -37 -38 -70 -42 -71 -58 -26 -115 -130 -124 -229 l-6 -67 -91 -91
c-211 -212 -355 -488 -412 -790 -25 -130 -25 -388 0 -520 36 -196 112 -389
213 -544 64 -99 181 -240 234 -283 l36 -29 6 -124 c3 -68 10 -132 15 -142 11
-20 294 -155 385 -184 33 -11 90 -22 128 -25 l69 -7 20 -71 c50 -176 103 -327
119 -335 69 -37 328 -58 525 -42 145 12 190 24 224 62 19 19 21 30 16 74 l-6
52 51 13 c100 24 122 65 95 185 -37 171 -36 208 6 225 17 7 33 24 39 40 11 34
57 50 140 50 44 0 58 -4 77 -25 19 -21 33 -25 81 -27 192 -6 252 15 297 103
37 75 47 196 22 285 -34 119 -68 196 -103 231 l-35 35 50 106 c106 224 137
372 136 642 0 163 -4 212 -22 297 -58 266 -184 512 -361 705 -62 66 -71 81
-71 115 -1 119 -60 319 -121 414 -52 80 -189 216 -269 268 -68 44 -180 84
-282 101 -76 12 -284 11 -353 -2z m282 -79 c96 -13 257 -67 331 -111 53 -32
129 -109 192 -194 l29 -41 -42 1 c-50 1 -93 -23 -108 -61 -13 -34 -7 -37 34
-22 71 25 178 -25 215 -102 39 -81 55 -369 31 -564 -22 -179 -95 -368 -200
-521 -63 -91 -90 -114 -189 -164 -104 -52 -180 -73 -270 -73 -62 0 -89 6 -152
32 -128 54 -216 130 -339 295 -24 32 -45 53 -47 47 -11 -32 63 -145 151 -235
51 -51 103 -100 117 -109 25 -16 25 -16 -26 -16 -37 -1 -59 -7 -79 -23 -27
-21 -31 -21 -119 -10 -129 16 -188 48 -243 130 -43 67 -110 237 -120 307 -5
37 -1 46 27 78 53 60 30 96 -34 52 -105 -71 -229 18 -267 194 -28 130 85 252
204 220 43 -11 70 -47 89 -116 11 -39 15 -43 44 -43 43 0 83 16 91 35 3 9 -5
63 -17 120 l-24 104 24 118 c25 125 30 212 17 279 -8 38 -5 44 36 101 55 73
181 170 309 236 124 64 193 76 335 56z m-477 -78 c0 -9 -56 -47 -102 -67 -57
-26 -145 -88 -198 -140 -60 -58 -140 -97 -140 -67 0 9 35 50 78 92 75 74 177
138 280 176 43 16 82 19 82 6z m-260 -320 c0 -5 3 -16 6 -24 4 -10 -8 -18 -43
-26 -85 -22 -143 -53 -183 -98 -49 -56 -71 -123 -71 -212 0 -86 -15 -102 -25
-25 -15 122 16 239 78 296 63 57 238 122 238 89z m987 -1807 c20 -13 42 -24
49 -24 17 0 16 10 4 -165 -6 -77 -16 -162 -24 -190 l-13 -50 -31 65 c-17 36
-49 106 -72 155 -23 50 -55 111 -72 138 -32 49 -32 77 1 77 10 0 34 7 52 15
39 16 57 13 106 -21z m233 -44 c16 -12 30 -29 30 -38 0 -24 -186 -329 -196
-320 -2 3 3 42 10 89 8 46 17 129 21 184 4 58 11 103 18 108 20 13 84 1 117
-23z m-390 -161 c56 -110 102 -220 95 -227 -8 -8 -195 67 -288 116 -75 39 -86
48 -81 66 14 45 75 111 149 160 l40 26 18 -22 c10 -13 40 -66 67 -119z m886
-238 c40 -24 58 -65 90 -197 30 -129 29 -192 -7 -246 -34 -53 -69 -69 -158
-75 -94 -7 -140 9 -76 25 22 6 57 13 78 17 20 3 37 11 37 16 0 7 -47 10 -137
8 l-138 -3 -7 69 c-4 39 -15 117 -23 173 -19 122 -23 116 90 157 39 14 93 37
120 50 61 29 91 31 131 6z m-818 -131 c24 -4 45 -10 48 -13 5 -5 15 -128 33
-437 16 -248 31 -483 34 -504 3 -26 -55 -43 -200 -57 -81 -8 -140 -8 -213 0
-123 13 -235 38 -249 54 -10 13 -66 205 -99 347 -22 91 -67 356 -77 455 -3 33
-8 72 -11 87 -5 25 -2 27 48 37 227 45 537 59 686 31z m396 -2 c23 -37 46
-141 53 -241 l6 -93 -42 -12 c-49 -15 -61 -10 -61 26 0 15 -11 95 -24 177 -26
161 -25 165 26 165 18 0 33 -8 42 -22z m-155 -605 c11 -60 21 -127 21 -150 0
-37 -3 -42 -31 -52 -18 -6 -44 -11 -59 -11 -27 0 -27 0 -34 92 -3 50 -6 117
-6 149 0 57 1 59 33 68 17 5 37 10 43 10 6 1 20 -45 33 -106z"/>
<path d="M21379 9120 c-85 -45 -162 -171 -126 -208 13 -13 17 -11 32 19 22 44
72 96 110 116 16 9 54 16 83 16 63 0 76 16 42 53 -29 30 -88 32 -141 4z"/>
<path d="M22235 8855 c4 -22 13 -61 22 -87 8 -26 12 -52 8 -58 -3 -5 -23 -10
-43 -10 -79 0 -105 -26 -64 -63 24 -22 67 -21 117 2 72 33 73 39 20 143 -58
113 -69 126 -60 73z"/>
<path d="M21603 8839 c3 -23 19 -69 36 -102 16 -34 27 -65 24 -70 -3 -6 -42
-7 -89 -4 l-84 6 0 -29 c0 -37 25 -51 104 -57 52 -4 66 -2 96 19 51 34 52 74
6 126 -20 22 -47 65 -62 96 -14 31 -28 56 -31 56 -3 0 -3 -19 0 -41z"/>
<path d="M21922 8780 c7 -70 55 -159 143 -265 95 -114 101 -126 86 -162 -9
-22 -32 -37 -98 -67 -88 -40 -152 -53 -197 -42 -19 5 -28 17 -37 46 -15 49
-26 51 -34 6 -5 -23 -1 -46 11 -71 l18 -38 81 5 c88 6 168 33 258 88 42 25 55
40 65 71 19 60 15 83 -17 107 -50 37 -193 224 -229 299 -19 40 -39 73 -44 73
-7 0 -9 -20 -6 -50z"/>
<path d="M20684 8558 c-12 -5 -27 -21 -33 -34 -14 -32 -14 -41 1 -26 7 7 19
12 28 12 14 0 15 -6 7 -47 -10 -50 5 -133 23 -133 6 0 10 28 10 63 0 36 5 68
12 75 23 23 47 13 68 -27 28 -55 40 -60 40 -14 0 51 -29 102 -71 125 -38 20
-54 21 -85 6z"/>
<path d="M22195 8205 c-33 -18 -88 -42 -122 -51 l-63 -17 0 -43 c0 -41 2 -44
28 -44 43 0 124 43 164 88 39 43 74 102 61 102 -5 0 -35 -16 -68 -35z"/>
<path d="M21611 8160 c41 -63 144 -104 291 -116 l79 -7 -3 47 -3 47 -110 5
c-100 5 -199 21 -250 40 -19 8 -19 7 -4 -16z"/>
<path d="M21545 8090 c-6 -10 25 -53 98 -136 21 -24 55 -48 75 -55 42 -14 193
-14 241 0 34 11 71 37 71 53 0 4 -46 8 -103 8 -183 0 -275 29 -325 100 -27 39
-45 49 -57 30z"/>
<path d="M6312 9567 c-28 -29 -30 -95 -4 -126 9 -11 31 -24 49 -27 27 -5 37
-1 64 25 28 29 31 36 26 74 -4 26 -14 48 -27 59 -32 26 -82 23 -108 -5z"/>
<path d="M6708 9580 c-9 -6 -22 -25 -28 -44 -20 -61 7 -110 67 -122 23 -5 36
0 59 20 23 20 25 25 11 26 -9 0 -26 -5 -36 -12 -24 -15 -71 3 -71 27 0 12 13
15 60 15 56 0 60 1 60 24 0 38 -37 76 -73 76 -18 0 -40 -5 -49 -10z"/>
<path d="M3390 8796 c-14 -39 -41 -46 -165 -46 -190 0 -315 -33 -394 -106 -69
-62 -86 -103 -86 -215 0 -94 -1 -97 -27 -112 -39 -22 -61 -63 -61 -112 0 -55
24 -92 75 -115 31 -14 45 -28 64 -71 30 -65 80 -127 128 -160 20 -13 36 -26
36 -29 0 -3 -30 -16 -67 -28 -99 -34 -185 -86 -257 -153 -59 -55 -67 -59 -110
-59 -52 0 -100 -20 -116 -49 -6 -13 -10 -147 -10 -365 l0 -346 -41 0 c-22 0
-49 -5 -61 -11 -25 -13 -51 -74 -43 -100 6 -18 -2 -19 -177 -21 l-183 -3 0
-25 0 -25 1290 0 1290 0 0 25 0 25 -180 5 -180 5 -1 39 c-2 53 -39 86 -95 86
l-39 0 0 346 c0 218 -4 352 -10 365 -16 29 -63 49 -115 49 -43 0 -52 5 -113
61 -76 69 -175 128 -262 154 -33 10 -60 21 -60 24 0 3 19 19 41 35 48 34 92
91 126 164 17 35 30 52 43 52 29 0 77 47 91 87 9 27 9 45 0 74 -12 40 -61 89
-90 89 -14 0 -17 11 -16 74 0 68 -4 81 -46 168 -26 51 -52 111 -58 133 -13 49
-66 115 -92 115 -11 0 -23 -10 -29 -24z m56 -101 c30 -73 6 -154 -58 -186 -44
-23 -163 -25 -328 -8 -132 14 -173 5 -224 -51 l-36 -40 0 38 c0 54 43 134 90
167 70 49 149 66 322 72 127 5 163 9 185 24 15 9 29 18 31 18 2 1 10 -15 18
-34z m47 -274 c32 -35 65 -106 54 -117 -2 -2 -26 -20 -52 -39 -37 -26 -53 -32
-66 -24 -10 5 -49 9 -87 9 -60 0 -71 -3 -92 -25 -17 -18 -34 -25 -63 -25 -30
0 -44 6 -59 25 -17 22 -27 25 -89 25 -39 0 -79 -5 -89 -10 -16 -8 -29 -3 -67
26 -26 20 -49 40 -51 44 -6 15 37 88 65 110 27 21 33 22 143 14 185 -14 330
-11 365 8 44 23 49 22 88 -21z m-583 -287 c0 -52 4 -68 24 -90 20 -24 33 -28
88 -32 58 -4 67 -2 95 22 26 22 32 35 35 74 3 46 3 47 38 47 33 0 35 -2 38
-35 7 -91 36 -115 134 -108 83 6 101 27 106 117 4 69 4 69 48 101 53 37 60 29
50 -55 -16 -137 -93 -248 -214 -307 -61 -30 -74 -33 -162 -33 -82 0 -103 4
-152 27 -71 33 -146 102 -181 165 -29 55 -53 167 -43 207 l7 27 44 -32 45 -32
0 -63z m188 64 c18 -18 15 -113 -4 -132 -20 -21 -93 -21 -122 0 -18 12 -22 25
-22 68 0 28 5 57 12 64 7 7 37 12 68 12 31 0 61 -5 68 -12z m322 -7 c17 -33
12 -99 -10 -121 -22 -22 -88 -27 -121 -10 -15 9 -19 22 -19 68 0 32 5 63 12
70 7 7 38 12 70 12 46 0 59 -4 68 -19z m-339 -528 c75 -79 223 -37 250 73 11
41 12 43 43 37 100 -19 238 -86 321 -157 l30 -25 -534 -1 c-599 0 -563 -6
-442 74 70 47 143 79 226 100 l50 13 17 -45 c9 -25 27 -55 39 -69z m827 -141
c9 -7 12 -96 10 -413 l-3 -404 -725 0 -725 0 -3 404 c-2 317 1 406 10 413 7 4
330 8 718 8 388 0 711 -4 718 -8z"/>
<path d="M3102 7249 c-131 -84 -69 -291 88 -291 88 0 159 70 160 156 0 45 -37
113 -74 136 -46 28 -129 27 -174 -1z m145 -54 c34 -24 47 -76 29 -118 -17 -41
-41 -57 -88 -57 -42 0 -72 20 -88 59 -26 63 20 131 87 131 21 0 48 -7 60 -15z"/>
<path d="M15997 6766 c-65 -60 -40 -191 40 -211 39 -9 91 13 108 46 15 27 14
29 -4 29 -10 0 -21 -7 -25 -15 -8 -23 -47 -34 -78 -23 -49 17 -61 106 -21 151
24 25 69 22 95 -8 22 -26 48 -33 48 -14 0 6 -13 24 -29 40 -39 38 -96 40 -134
5z"/>
<path d="M16500 6748 c0 -33 -3 -39 -12 -30 -19 19 -66 14 -88 -8 -30 -30 -28
-103 5 -135 28 -29 51 -32 77 -8 11 9 18 11 18 5 0 -7 7 -12 15 -12 12 0 15
19 15 115 0 96 -3 115 -15 115 -11 0 -15 -11 -15 -42z"/>
<path d="M16850 6675 c0 -96 3 -115 15 -115 11 0 15 11 15 40 l0 40 45 0 c56
0 85 25 85 74 0 50 -37 76 -106 76 l-54 0 0 -115z"/>
<path d="M18010 6675 c0 -108 1 -115 20 -115 16 0 20 7 20 35 0 19 3 35 8 35
4 0 21 -16 37 -36 19 -22 38 -35 48 -33 14 3 11 11 -18 48 l-35 43 31 39 c41
52 13 53 -36 2 l-34 -38 -1 68 c0 60 -2 67 -20 67 -19 0 -20 -7 -20 -115z"/>
<path d="M18780 6675 l0 -115 68 0 c54 0 72 4 85 18 23 25 21 68 -3 85 -18 13
-19 16 -5 27 8 7 15 25 15 41 0 40 -32 59 -102 59 l-58 0 0 -115z"/>
<path d="M19440 6748 c0 -33 -3 -39 -12 -30 -7 7 -24 12 -39 12 -64 0 -94
-106 -44 -155 28 -29 51 -31 83 -9 12 8 22 10 22 5 0 -6 7 -11 15 -11 12 0 15
19 15 115 0 108 -1 115 -20 115 -17 0 -20 -7 -20 -42z"/>
<path d="M19849 6775 c-77 -42 -57 -198 28 -220 39 -9 91 13 108 46 15 27 14
29 -4 29 -10 0 -21 -7 -25 -15 -8 -23 -47 -34 -78 -23 -49 17 -61 106 -21 151
24 25 69 22 95 -8 22 -26 48 -33 48 -14 0 6 -13 24 -29 40 -33 33 -78 38 -122
14z"/>
<path d="M16212 6707 c-28 -29 -30 -95 -4 -126 9 -11 31 -24 49 -27 27 -5 37
-1 64 25 28 29 31 36 26 74 -4 26 -14 48 -27 59 -32 26 -82 23 -108 -5z"/>
<path d="M16608 6720 c-9 -6 -22 -25 -28 -44 -20 -61 7 -110 67 -122 23 -5 36
0 59 20 23 20 25 25 11 26 -9 0 -26 -5 -36 -12 -24 -15 -71 3 -71 27 0 12 13
15 60 15 56 0 60 1 60 24 0 38 -37 76 -73 76 -18 0 -40 -5 -49 -10z"/>
<path d="M17668 6720 c-22 -13 -40 -72 -32 -104 8 -32 49 -66 80 -66 28 0 89
49 61 50 -9 0 -26 -5 -36 -12 -24 -15 -71 3 -71 27 0 12 13 15 60 15 56 0 60
1 60 24 0 38 -37 76 -73 76 -18 0 -40 -5 -49 -10z"/>
<path d="M21378 5443 c-44 -5 -50 -18 -13 -27 15 -4 30 -18 35 -32 12 -29 13
-414 2 -430 -4 -6 -17 -14 -29 -18 -51 -16 -17 -26 87 -26 110 0 138 10 84 30
-23 9 -25 14 -22 62 2 28 8 53 15 55 6 2 33 -30 60 -71 l48 -75 193 -1 c148 0
192 3 192 13 0 7 -10 17 -22 22 -22 10 -23 15 -26 163 l-3 152 -28 0 c-15 0
-55 -3 -89 -6 -45 -5 -59 -10 -55 -20 3 -8 13 -14 24 -14 10 0 23 -9 29 -19
11 -22 14 -230 2 -248 -12 -18 -55 -24 -84 -10 -15 7 -54 53 -92 109 l-65 96
34 26 c19 15 55 35 80 46 26 11 43 24 40 30 -3 5 -44 10 -91 10 -65 0 -84 -3
-84 -14 0 -7 9 -16 20 -19 33 -9 23 -32 -37 -88 l-58 -52 -3 181 -2 182 -53
-2 c-28 -1 -69 -3 -89 -5z"/>
<path d="M20150 5397 c0 -7 15 -20 33 -28 l32 -14 0 -187 c0 -184 0 -187 -24
-212 -17 -18 -35 -26 -58 -26 -38 0 -42 14 -12 46 40 43 14 114 -43 114 -25 0
-68 -44 -68 -70 0 -39 28 -89 60 -105 76 -40 208 -8 250 59 18 30 20 50 20
189 0 86 4 167 9 180 6 14 21 27 36 31 15 4 25 12 22 19 -6 18 -257 23 -257 4z"/>
<path d="M21118 5260 c-15 -4 -40 -18 -55 -30 l-28 -22 -3 26 c-4 29 -19 32
-119 20 -58 -7 -67 -19 -28 -34 25 -9 25 -10 25 -144 0 -131 -1 -135 -22 -138
-12 -2 -23 -9 -26 -15 -3 -10 22 -13 102 -13 84 0 106 3 106 14 0 7 -9 16 -20
19 -18 5 -20 14 -20 115 0 107 1 111 26 131 35 27 69 27 88 -1 12 -17 16 -49
16 -131 0 -100 -2 -109 -20 -114 -11 -3 -20 -12 -20 -19 0 -11 22 -14 100 -14
74 0 100 3 100 13 0 7 -10 17 -22 22 -22 9 -23 17 -28 136 -5 138 -11 152 -67
176 -36 15 -46 15 -85 3z"/>
<path d="M22314 5259 c-17 -5 -39 -18 -49 -29 -24 -27 -35 -25 -35 5 0 28 -6
29 -109 19 -67 -7 -75 -16 -33 -36 l27 -13 3 -128 3 -127 -26 -10 c-52 -20
-25 -30 80 -30 65 0 105 4 105 10 0 6 -8 14 -17 17 -29 11 -33 24 -33 129 0
112 8 128 67 140 54 11 63 -10 63 -146 0 -109 -1 -118 -20 -123 -11 -3 -20
-10 -20 -16 0 -7 36 -11 105 -11 104 0 132 10 81 30 -23 8 -24 13 -28 132 -4
142 -16 171 -77 188 -41 11 -45 11 -87 -1z"/>
<path d="M20565 5244 c-97 -50 -132 -159 -82 -254 31 -59 89 -90 170 -90 66 0
111 18 151 59 24 25 25 29 12 41 -13 10 -17 9 -22 -4 -17 -45 -122 -61 -166
-26 -21 16 -48 82 -48 114 0 3 54 6 120 6 l120 0 0 31 c0 50 -29 98 -71 119
-47 25 -141 27 -184 4z"/>
<path d="M22650 5249 c-39 -16 -59 -39 -66 -76 -13 -69 26 -111 134 -144 51
-15 64 -29 60 -65 -7 -65 -123 -43 -167 32 -30 51 -41 43 -41 -31 0 -64 6 -75
27 -54 9 9 20 9 44 0 45 -16 132 -14 177 4 44 18 72 59 72 105 0 45 -42 82
-123 109 -73 25 -95 47 -77 81 8 15 21 20 52 20 34 0 46 -6 74 -36 19 -19 34
-40 34 -45 0 -5 5 -9 10 -9 6 0 10 26 10 58 l0 57 -98 2 c-53 1 -108 -3 -122
-8z"/>
</g>
</svg>
